<svg width="16" height="16" viewBox="0 0 16 16" fill="none" xmlns="http://www.w3.org/2000/svg">
<path fill-rule="evenodd" clip-rule="evenodd" d="M3.01035 2.7405C2.90202 2.77476 2.80732 2.85754 2.75925 2.96001L2.73035 3.02163V8.00003V12.9784L2.75925 13.0401C2.82097 13.1716 2.95247 13.2625 3.09595 13.2727C3.18839 13.2794 3.25864 13.262 3.33515 13.2136C3.44278 13.1456 3.50176 13.0554 3.5197 12.9313C3.52626 12.8859 3.53079 12.4348 3.53092 11.8126L3.53115 10.7699L4.08275 10.6005C4.38612 10.5074 4.68979 10.4163 4.75755 10.398C5.34462 10.2402 5.98955 10.2321 6.58842 10.3753C6.985 10.47 7.2859 10.5941 7.69195 10.8303C8.28756 11.1768 8.74975 11.3481 9.36075 11.4486C9.61461 11.4904 9.75554 11.5 10.1055 11.4997C10.5401 11.4992 10.813 11.4668 11.1948 11.3705C11.5288 11.2862 12.7041 10.9412 12.779 10.9054C12.9941 10.8027 13.1661 10.5976 13.2433 10.3516L13.2695 10.268V7.57443C13.2695 4.53841 13.2785 4.83249 13.1804 4.63443C13.0885 4.44874 12.9592 4.31951 12.7767 4.23104C12.6316 4.16066 12.5555 4.14299 12.3959 4.14256C12.2368 4.14213 12.2713 4.13427 11.6343 4.31569C11.054 4.48098 10.9111 4.51807 10.7327 4.54979C10.1436 4.65454 9.52732 4.61423 8.95564 4.43356C8.65387 4.33818 8.42048 4.23262 8.11195 4.05194C7.51813 3.70421 7.01822 3.52155 6.39835 3.42583C6.17538 3.39139 6.00463 3.38032 5.69835 3.38047C5.1166 3.38073 4.83521 3.43214 3.98752 3.69302C3.75498 3.76459 3.55715 3.82605 3.54792 3.82959C3.53324 3.83522 3.53112 3.79278 3.53092 3.49043C3.53069 3.12261 3.52214 3.019 3.48626 2.94865C3.43821 2.85447 3.33295 2.76696 3.23305 2.73813C3.17417 2.72114 3.06798 2.72226 3.01035 2.7405ZM5.28395 4.20317C4.95766 4.24431 4.82714 4.27723 4.08113 4.50655C3.8002 4.59291 3.56153 4.66617 3.55075 4.66935C3.53215 4.67484 3.53115 4.80988 3.53115 7.30154V9.92794L3.55635 9.91989C4.74013 9.54192 5.06381 9.47413 5.68715 9.47352C6.15256 9.47307 6.45477 9.50978 6.87995 9.61836C7.28599 9.72206 7.65504 9.87959 8.10279 10.1403C8.52481 10.3861 8.86137 10.5224 9.27115 10.6135C9.54364 10.6741 9.79224 10.7001 10.0966 10.6999C10.4304 10.6997 10.6853 10.6673 11.0183 10.5828C11.3434 10.5003 12.4278 10.184 12.4479 10.1659C12.4681 10.1475 12.4687 10.0704 12.4687 7.56753V4.9881L12.4442 4.96527C12.4308 4.95271 12.4081 4.94243 12.3939 4.94243C12.3798 4.94243 12.1048 5.01755 11.7828 5.10936C11.0066 5.33079 10.8156 5.37069 10.3799 5.40263C10.1894 5.41659 9.82484 5.41057 9.62955 5.39022C8.93957 5.31832 8.35304 5.12157 7.70315 4.74403C7.39248 4.56355 7.24976 4.49493 6.98693 4.39965C6.71033 4.29939 6.40714 4.23108 6.09171 4.19796C5.8713 4.17481 5.48941 4.17728 5.28395 4.20317Z" fill="#8351C2"/>
</svg>
