<svg xmlns="http://www.w3.org/2000/svg" viewBox="0 0 16 16" fill="none"><path fill="#716D28" fill-rule="evenodd" d="M7.558 2.741a5.274 5.274 0 0 0-1.266 10.25 5.287 5.287 0 0 0 3.4.005 5.852 5.852 0 0 0 1.01-.465c1.61-.975 2.573-2.672 2.573-4.532 0-1.03-.297-2.03-.857-2.884A5.285 5.285 0 0 0 8.712 2.77a6.135 6.135 0 0 0-1.154-.028Zm.1.796c-.637.063-1.081.184-1.605.437a4.275 4.275 0 0 0-1.256.907 4.163 4.163 0 0 0-.808 1.141 4.419 4.419 0 0 0-.426 1.404c-.022.155-.025.222-.025.573 0 .415.006.489.062.8.1.568.327 1.138.646 1.63a4.492 4.492 0 0 0 3.189 2.007c.245.035.842.038 1.086.006a4.492 4.492 0 0 0 3.234-2.013c.33-.508.56-1.104.657-1.69.046-.282.052-.367.051-.757 0-.33-.004-.404-.025-.557a4.472 4.472 0 0 0-1.234-2.544 4.276 4.276 0 0 0-1.256-.908 4.392 4.392 0 0 0-1.404-.416 9.8 9.8 0 0 0-.885-.02Zm-.744 2.45a.421.421 0 0 0-.254.226l-.032.067V9.718l.03.064c.042.089.11.16.198.202a.285.285 0 0 0 .169.036.31.31 0 0 0 .16-.03.397.397 0 0 0 .233-.3c.009-.051.011-.553.009-1.741L7.424 6.28l-.03-.064a.403.403 0 0 0-.351-.24.497.497 0 0 0-.129.011Zm2.203-.004a.423.423 0 0 0-.263.222l-.03.064v3.46l.029.062a.407.407 0 0 0 .544.19.451.451 0 0 0 .182-.19l.029-.061V6.269l-.03-.064a.431.431 0 0 0-.195-.196.491.491 0 0 0-.266-.026Z" clip-rule="evenodd"/></svg>
