<?xml version="1.0" encoding="utf-8"?>
<!-- Generator: Adobe Illustrator 21.0.1, SVG Export Plug-In . SVG Version: 6.00 Build 0)  -->
<svg version="1.1" id="Layer_1" xmlns="http://www.w3.org/2000/svg" xmlns:xlink="http://www.w3.org/1999/xlink" x="0px" y="0px"
	 viewBox="0 0 409 66.7" style="enable-background:new 0 0 409 66.7;" xml:space="preserve">
<g>
	<path fill="#003479" d="M13.3,7.5l17.3,35.1l2,4.4h0.2l2-4.4L52.1,7.5h5.3v45h-4.1V18.9l0.1-4.9L53.2,14l-2,4.4L34.3,52.5h-3.5
		L14.1,18.7L12,14.2l-0.1,0.1l0.1,4.9v33.4h-4v-45H13.3z"/>
	<path fill="#003479" d="M86.8,53.3l0.2-0.7L68.2,17.3h5l14,27.4l2.1,4.3h0.2l1.7-4.5l11.6-27.2h4.6L91.1,53.5
		c-2.9,6.4-6.4,8.6-11.4,8.6c-2.2,0-4.4-0.5-6.1-1.3l0.5-3.2c1.6,0.8,3.4,1.2,4.9,1.2C82.3,58.7,84.6,57.4,86.8,53.3z"/>
	<path fill="#003479" d="M170.8,40.8h-26.4l-5.2,11.7h-4.9l20.8-45h5.3l20.7,45H176L170.8,40.8z M155.8,15.3L146.2,37h23l-9.5-21.7
		l-1.8-4.5h-0.2L155.8,15.3z"/>
	<path fill="#003479" d="M213.4,22.6c-2.7-1.3-6.1-2.1-9.5-2.1c-9.8,0-13.7,4.7-13.7,14.1c0,10.6,4.8,14.9,13.7,14.9
		c3.5,0,7.2-0.9,9.9-2.7l0.4,3.5c-2.6,1.7-6.7,3-11.2,3c-11.4,0-17.2-6.1-17.2-18.7c0-11.5,5.2-18,17.2-18c4,0,7.7,0.9,10.7,2.2
		L213.4,22.6z"/>
	<path fill="#003479" d="M248.2,22.6c-2.7-1.3-6.1-2.1-9.5-2.1c-9.8,0-13.7,4.7-13.7,14.1c0,10.6,4.8,14.9,13.7,14.9
		c3.5,0,7.2-0.9,9.9-2.7l0.4,3.5c-2.6,1.7-6.7,3-11.2,3c-11.4,0-17.2-6.1-17.2-18.7c0-11.5,5.2-18,17.2-18c4,0,7.7,0.9,10.7,2.2
		L248.2,22.6z"/>
	<path fill="#003479" d="M273.3,53.3c-12.3,0-17.8-5.9-17.8-18.4c0-12.4,5.6-18.3,17.8-18.3c12.4,0,17.6,5.9,17.6,18.3
		C290.9,47.5,285.7,53.3,273.3,53.3z M273.3,49.8c9.5,0,13.3-4.6,13.3-14.8c0-10.1-3.7-14.7-13.3-14.7c-9.7,0-13.5,4.6-13.5,14.7
		C259.8,45.2,263.6,49.8,273.3,49.8z"/>
	<path fill="#003479" d="M332,40.4c0,7.8-5.1,12.8-15.7,12.8c-10.4,0-15.5-5-15.5-12.8V17.3h4.1v23c0,5.6,3.8,9.2,11.4,9.2
		c7.6,0,11.5-3.5,11.5-9.2v-23h4.2V40.4z"/>
	<path fill="#003479" d="M371.5,52.5V30.3c0-6.7-4-9.8-11.3-9.8c-4,0-9.1,1.8-11.5,5.2v26.8h-4.2V17.4l2.9-0.3l0.8,4.7h0.2
		c2.9-3.2,7.9-5.2,12.8-5.2c9.1,0,14.5,4.5,14.5,13.6v22.3H371.5z"/>
	<path fill="#003479" d="M395.2,20.6v22.7c0,4.4,2.6,6.4,6.8,6.4c1.1,0,2.7-0.2,3.5-0.5l0.4,3.1c-1.2,0.5-3.2,0.8-5,0.8
		c-6.4,0-9.9-3.3-9.9-9.7V20.6h-6.6v-3.3h6.7l0.9-9.5l3.2-0.4v9.8H406v3.3H395.2z"/>
</g>
</svg>
